<svg xmlns="http://www.w3.org/2000/svg" viewBox="0 0 64 64" width="64" height="64">
  <defs>
    <linearGradient id="controllerGradient" x1="0%" y1="0%" x2="0%" y2="100%">
      <stop offset="0%" style="stop-color:#4f46e5;stop-opacity:1" />
      <stop offset="100%" style="stop-color:#3730a3;stop-opacity:1" />
    </linearGradient>
  </defs>
  
  <!-- Controller body -->
  <path d="M8 20 C8 16, 12 12, 16 12 L48 12 C52 12, 56 16, 56 20 L56 36 C56 40, 52 44, 48 44 L16 44 C12 44, 8 40, 8 36 Z" fill="url(#controllerGradient)" stroke="#1e1b4b" stroke-width="1"/>
  
  <!-- Left grip -->
  <path d="M8 28 C4 28, 2 32, 2 36 L2 48 C2 52, 6 56, 10 56 C14 56, 18 52, 18 48 L18 36 C18 32, 14 28, 10 28 Z" fill="url(#controllerGradient)" stroke="#1e1b4b" stroke-width="1"/>
  
  <!-- Right grip -->
  <path d="M56 28 C60 28, 62 32, 62 36 L62 48 C62 52, 58 56, 54 56 C50 56, 46 52, 46 48 L46 36 C46 32, 50 28, 54 28 Z" fill="url(#controllerGradient)" stroke="#1e1b4b" stroke-width="1"/>
  
  <!-- Center stick -->
  <circle cx="32" cy="28" r="6" fill="#6366f1" stroke="#1e1b4b" stroke-width="1"/>
  <circle cx="32" cy="28" r="3" fill="#8b5cf6"/>
  
  <!-- D-pad -->
  <rect x="16" y="26" width="8" height="2" rx="1" fill="#6366f1"/>
  <rect x="19" y="23" width="2" height="8" rx="1" fill="#6366f1"/>
  
  <!-- Action buttons -->
  <circle cx="44" cy="24" r="2" fill="#fbbf24"/>
  <circle cx="48" cy="28" r="2" fill="#10b981"/>
  <circle cx="44" cy="32" r="2" fill="#ef4444"/>
  <circle cx="40" cy="28" r="2" fill="#3b82f6"/>
  
  <!-- Text -->
  <text x="32" y="52" text-anchor="middle" font-family="Arial, sans-serif" font-size="8" font-weight="bold" fill="#1e1b4b">N64</text>
</svg>